# xmcd
#
# Track frame offsets: 
#        150
#        14262
#        31251
#        48846
#        66245
#        78666
#        95381
#        111243
#        126304
#        142307
#        156978
#        172824
#        187949
#
# Disc length: 2736 seconds
#
# Revision: 0
# Processed by: cddbd v1.5.2PL0 Copyright (c) Steve Scherf et al.
# Submitted via: ExactAudioCopy v0.95b4
#
DISCID=ad0aae0d
DTITLE=Travis Mitchell Band - Waiting On Tomorrow
DYEAR=2007
DGENRE=Country
TTITLE0=She's That Kind Of Girl
TTITLE1=I Don't Mind
TTITLE2=This Town Ain't Me
TTITLE3=Ever Again
TTITLE4=Broken Hearts And Beer
TTITLE5=Only You And Me
TTITLE6=Cross That Bridge
TTITLE7=Drove Me To Drinkin'
TTITLE8=Long Lonely Ride
TTITLE9=River Road Rendezvous
TTITLE10=Can't Wait Til Tomorrow
TTITLE11=Last Thing I Needed
TTITLE12=Ride My Own Way
EXTD=
EXTT0=
EXTT1=
EXTT2=
EXTT3=
EXTT4=
EXTT5=
EXTT6=
EXTT7=
EXTT8=
EXTT9=
EXTT10=
EXTT11=
EXTT12=
PLAYORDER=
